#!OML:ASF G:\JayActor3\Patient Classification 1\Patient 1\Session 6\male.ASF
:FULLY-SPECIFIED
:DEGREES
955
root 10.0555 16.0383 -23.3577 342.117 -86.0437 -345.199
lowerback 7.19548 -3.78154 -3.59677
upperback -3.68414 -5.48248 -0.24111
thorax -7.59995 -2.51662 2.49065
lowerneck 3.95047 6.0965 6.31527
upperneck 3.61048 8.36046 -3.08714
head 0.882436 4.23076 -2.04657
rclavicle 4.03409e-014 2.5842e-015
rhumerus -46.5672 3.44808 -77.1869
rradius 37.3613
rwrist 7.70857
rhand -0.911415 -1.53101
rfingers 7.12502
rthumb 24.7171 -29.9543
lclavicle 4.03409e-014 2.5842e-015
lhumerus -38.7156 -14.4346 83.7888
lradius 41.2556
lwrist 27.3374
lhand -10.1631 8.45356
lfingers 7.12502
lthumb 15.8266 37.8267
rfemur -39.9307 0.0960429 18.3039
rtibia 64.0713
rfoot -15.6447 -4.11129
rtoes -21.3316
lfemur 13.4323 30.8828 -21.9993
ltibia 5.05537
lfoot -16.2258 -5.6108
ltoes -0.849001
956
root 9.97192 16.0426 -23.3373 344.156 -85.4335 -347.174
lowerback 7.21292 -3.82924 -3.59847
upperback -3.67067 -5.54159 -0.180208
thorax -7.5855 -2.544 2.56322
lowerneck 3.92344 5.69892 6.16809
upperneck 3.59783 7.82561 -3.17432
head 0.852959 3.96094 -2.05324
rclavicle -2.27733e-014 9.98893e-015
rhumerus -46.6279 3.64641 -77.1716
rradius 37.358
rwrist 7.63169
rhand -0.913014 -1.50903
rfingers 7.12502
rthumb 24.7156 -29.9325
lclavicle -2.27733e-014 9.98893e-015
lhumerus -38.8564 -14.4283 84.0758
lradius 41.0791
lwrist 27.3086
lhand -10.0748 8.45836
lfingers 7.12502
lthumb 15.9116 37.8247
rfemur -40.0478 0.580032 18.1721
rtibia 62.0659
rfoot -16.0021 -3.93249
rtoes -21.318
lfemur 16.4761 30.5646 -21.8928
ltibia 3.02153e-014
lfoot -14.1025 -6.05419
ltoes -0.740816
957
root 9.88783 16.0471 -23.3172 345.765 -84.7968 -348.725
lowerback 7.22696 -3.87815 -3.60694
upperback -3.64652 -5.6022 -0.116387
thorax -7.55646 -2.57223 2.64189
lowerneck 3.92407 5.31468 6.01637
upperneck 3.54173 7.3098 -3.25858
head 0.806026 3.70058 -2.05886
rclavicle -1.68159e-014 -1.39646e-014
rhumerus -46.6643 3.8474 -77.1605
rradius 37.3606
rwrist 7.54655
rhand -0.89852 -1.51927
rfingers 7.12502
rthumb 24.7295 -29.9409
lclavicle -1.68159e-014 -1.39646e-014
lhumerus -38.9905 -14.4227 84.355
lradius 40.914
lwrist 27.2831
lhand -9.9576 8.459
lfingers 7.12502
lthumb 16.0245 37.8163
rfemur -40.0972 1.11842 17.9887
rtibia 60.0032
rfoot -16.3447 -3.75746
rtoes -21.1708
lfemur 16.774 30.2298 -21.7853
ltibia 4.92986e-014
lfoot -14.2909 -6.3965
ltoes -0.616859
958
root 9.80316 16.0517 -23.2969 347.036 -84.1327 -349.947
lowerback 7.24579 -3.92637 -3.61298
upperback -3.61513 -5.66174 -0.0554955
thorax -7.52286 -2.60036 2.71602
lowerneck 3.95197 4.9415 5.84583
upperneck 3.44898 6.80877 -3.32005
head 0.742407 3.44753 -2.0541
rclavicle -3.65515e-014 -1.04362e-014
rhumerus -46.6864 4.04233 -77.1528
rradius 37.3719
rwrist 7.46754
rhand -0.850814 -1.57818
rfingers 7.12502
rthumb 24.7752 -29.9935
lclavicle -3.65515e-014 -1.04362e-014
lhumerus -39.127 -14.4211 84.6273
lradius 40.764
lwrist 27.2612
lhand -9.83484 8.4693
lfingers 7.12502
lthumb 16.1427 37.817
rfemur -40.0792 1.70991 17.7475
rtibia 57.898
rfoot -16.6604 -3.62821
rtoes -21.097
lfemur 17.0801 29.8706 -21.6745
ltibia -4.92986e-014
lfoot -14.4751 -6.73737
ltoes -0.490287
959
root 9.71766 16.0562 -23.2769 348.082 -83.45 -350.951
lowerback 7.26124 -3.96982 -3.61664
upperback -3.57827 -5.71446 0.00348745
thorax -7.48215 -2.62565 2.78537
lowerneck 3.99659 4.56614 5.65787
upperneck 3.3325 6.30419 -3.35846
head 0.667538 3.1927 -2.03847
rclavicle 3.09087e-015 2.40949e-015
rhumerus -46.7018 4.22721 -77.1485
rradius 37.3948
rwrist 7.39716
rhand -0.768066 -1.67642
rfingers 7.12502
rthumb 24.8545 -30.0808
lclavicle 3.09087e-015 2.40949e-015
lhumerus -39.2668 -14.4272 84.8943
lradius 40.629
lwrist 27.2452
lhand -9.72345 8.48645
lfingers 7.12502
lthumb 16.2499 37.8255
rfemur -40.0033 2.38047 17.4517
rtibia 55.7691
rfoot -16.9967 -3.57966
rtoes -21.1198
lfemur 17.391 29.4932 -21.5564
ltibia 3.18055e-015
lfoot -14.655 -7.07761
ltoes -0.35246
960
root 9.63152 16.0604 -23.2569 348.908 -82.7419 -351.737
lowerback 7.27603 -4.00905 -3.61924
upperback -3.54043 -5.76199 0.0549672
thorax -7.44115 -2.64873 2.84552
lowerneck 4.05246 4.18609 5.46463
upperneck 3.20196 5.79298 -3.38126
head 0.586325 2.93473 -2.01612
rclavicle 1.5266e-014 2.93207e-015
rhumerus -46.7176 4.39078 -77.1466
rradius 37.4301
rwrist 7.35214
rhand -0.652582 -1.80922
rfingers 7.12502
rthumb 24.9652 -30.1983
lclavicle 1.5266e-014 2.93207e-015
lhumerus -39.4097 -14.4484 85.1564
lradius 40.5056
lwrist 27.2396
lhand -9.61881 8.53769
lfingers 7.12502
lthumb 16.3507 37.8684
rfemur -39.8851 3.13606 17.0863
rtibia 53.6352
rfoot -17.3665 -3.63667
rtoes -21.2748
lfemur 17.7014 29.0924 -21.4434
ltibia 9.54166e-015
lfoot -14.8324 -7.417
ltoes -0.194427
961
root 9.54478 16.0641 -23.2371 349.573 -82.0093 -352.367
lowerback 7.29346 -4.04474 -3.62201
upperback -3.50184 -5.80552 0.0988596
thorax -7.40188 -2.67005 2.89751
lowerneck 4.12386 3.80149 5.27503
upperneck 3.06104 5.27583 -3.39292
head 0.499873 2.67407 -1.99002
rclavicle -2.22297e-014 1.10077e-014
rhumerus -46.7293 4.54972 -77.1574
rradius 37.4624
rwrist 7.31345
rhand -0.495004 -2.00707
rfingers 7.12502
rthumb 25.1162 -30.3751
lclavicle -2.22297e-014 1.10077e-014
lhumerus -39.5566 -14.4824 85.4093
lradius 40.3878
lwrist 27.2422
lhand -9.51208 8.59769
lfingers 7.12502
lthumb 16.4535 37.92
rfemur -39.7295 3.98548 16.6491
rtibia 51.5196
rfoot -17.7945 -3.80339
rtoes -21.4698
lfemur 18.0181 28.668 -21.3308
ltibia 0
lfoot -14.9948 -7.759
ltoes -0.00901585
962
root 9.45747 16.0676 -23.2172 350.108 -81.2472 -352.871
lowerback 7.31572 -4.08011 -3.62402
upperback -3.46681 -5.8495 0.135501
thorax -7.36996 -2.6916 2.94216
lowerneck 4.21211 3.41662 5.10612
upperneck 2.91524 4.75938 -3.40865
head 0.41095 2.41425 -1.96806
rclavicle 1.98412e-014 -1.39149e-015
rhumerus -46.7425 4.70018 -77.174
rradius 37.4958
rwrist 7.30731
rhand -0.307978 -2.23104
rfingers 7.12502
rthumb 25.2954 -30.5739
lclavicle 1.98412e-014 -1.39149e-015
lhumerus -39.7092 -14.5273 85.6524
lradius 40.2712
lwrist 27.254
lhand -9.40203 8.66667
lfingers 7.12502
lthumb 16.5594 37.9801
rfemur -39.5486 4.93399 16.1304
rtibia 49.446
rfoot -18.3035 -4.08963
rtoes -21.681
lfemur 18.336 28.2152 -21.2242
ltibia -3.18055e-014
lfoot -15.151 -8.09169
ltoes 0.135138
963
root 9.36951 16.0706 -23.1975 350.545 -80.4581 -353.285
lowerback 7.34327 -4.11614 -3.63094
upperback -3.43045 -5.89526 0.169263
thorax -7.33934 -2.71384 2.9871
lowerneck 4.30093 3.03715 4.94324
upperneck 2.77075 4.24988 -3.41913
head 0.323725 2.15815 -1.94416
rclavicle 1.15668e-014 6.60959e-015
rhumerus -46.7422 4.85375 -77.1991
rradius 37.5148
rwrist 7.30835
rhand -0.141583 -2.43172
rfingers 7.12502
rthumb 25.4548 -30.7519
lclavicle 1.15668e-014 6.60959e-015
lhumerus -39.8582 -14.5731 85.8841
lradius 40.1488
lwrist 27.2736
lhand -9.27668 8.73901
lfingers 7.12502
lthumb 16.6801 38.0423
rfemur -39.3474 5.98609 15.5312
rtibia 47.4408
rfoot -18.8867 -4.46259
rtoes -21.8033
lfemur 18.6624 27.7357 -21.1175
ltibia -1.90833e-014
lfoot -15.3005 -8.41778
ltoes 0.246332
964
root 9.28107 16.0729 -23.1776 350.89 -79.6425 -353.614
lowerback 7.37631 -4.1523 -3.63989
upperback -3.39598 -5.94202 0.199727
thorax -7.31395 -2.73639 3.03042
lowerneck 4.39399 2.66366 4.78223
upperneck 2.62721 3.74807 -3.42269
head 0.237349 1.9061 -1.91721
rclavicle 6.67233e-014 6.95746e-016
rhumerus -46.7315 5.00897 -77.2263
rradius 37.5205
rwrist 7.33002
rhand 0.0102709 -2.58961
rfingers 7.12502
rthumb 25.6002 -30.889
lclavicle 6.67233e-014 6.95746e-016
lhumerus -40.0062 -14.6158 86.106
lradius 40.0207
lwrist 27.2897
lhand -9.14364 8.8112
lfingers 7.12502
lthumb 16.8082 38.1037
rfemur -39.1373 7.12904 14.8519
rtibia 45.5293
rfoot -19.5275 -4.8866
rtoes -21.8204
lfemur 18.9901 27.2308 -21.017
ltibia -6.36111e-015
lfoot -15.4342 -8.73371
ltoes 0.347301
